<svg xmlns="http://www.w3.org/2000/svg" viewBox="0 0 150.83 61.25"><defs><style>.cls-1{fill:#f4ab18;}.cls-1,.cls-2,.cls-3{fill-rule:evenodd;}.cls-2{fill:#fefefe;}.cls-3{fill:#fff;}</style></defs><title>logo</title><g id="Capa_2" data-name="Capa 2"><g id="Capa_1-2" data-name="Capa 1"><g id="Group-3"><path id="Fill-1" class="cls-1" d="M110.66,57.85H19.56a.75.75,0,0,1-.7-.5L5.06,20.15a.82.82,0,0,1,1.3-.9l9.3,7.7a.77.77,0,0,0,1.2-.3l8.4-19.9a.82.82,0,0,1,1.5,0l8.6,19a.77.77,0,0,0,1.2.3l10.2-7.8a.77.77,0,0,1,1.2.9l-1.8,5.5a.75.75,0,0,0,.9,1l1.7-.3a1,1,0,0,0,.6-.5l4.2-12.5c.2-.7-.6-1.4-1.2-.9l-14.3,10.1a.84.84,0,0,1-1.2-.3L26.76.45a.77.77,0,0,0-1.4,0l-9.5,21.1a.77.77,0,0,1-1.2.3l-13.4-9.7a.78.78,0,0,0-1.2.9l17.6,47.7a.79.79,0,0,0,.8.5Z"/></g><path id="Fill-4" class="cls-1" d="M23,37.15l1.6-8.3h4.3L27.26,37c-.1.3.3.5,1,.5h7.6l-.5,2.4h-8.7a6.37,6.37,0,0,1-3.1-.7,1.86,1.86,0,0,1-.6-2"/><path id="Fill-4-2" data-name="Fill-4" class="cls-2" d="M137.93,52.15l1.6-8.3h4.3l-1.6,8.1c-.1.3.3.5,1,.5h7.6l-.5,2.4h-8.7a6.37,6.37,0,0,1-3.1-.7,1.86,1.86,0,0,1-.6-2"/><polygon id="Fill-6" class="cls-1" points="36.86 39.75 39.26 28.75 43.86 28.75 41.56 39.75 36.86 39.75"/><path id="Fill-8" class="cls-1" d="M49.56,37.45H54c.5,0,.8,0,.9-.1a1.2,1.2,0,0,0,.7-.7.31.31,0,0,1,.1-.2l.9-4.8c-.1-.3-.5-.5-1.4-.5h-4.3Zm-4.7,2.3,2.1-11h10.1c2.8,0,4.1.8,3.8,2.4l-1.2,6.2c0,.1-.1.2-.1.4-.5,1.3-2,2-4.4,2Z"/><path id="Fill-10" class="cls-1" d="M62,37.55l1.2-6.3a1.69,1.69,0,0,1,.2-.5c.6-1.3,2.1-1.9,4.5-1.9h9l-.5,2.4h-7.9a.37.37,0,0,0-.3.1q-.75.15-.9.6l-.2,1.2h9l-.5,2.4h-8.9l-.2,1.2c-.1.4.2.7,1,.7h7.8l-.5,2.4h-8.4c-3.3-.1-4.7-.8-4.4-2.3"/><path id="Fill-12" class="cls-1" d="M80.06,28.75h10.1c2.8,0,4,.7,3.7,2.2l-.4,2.2a2.43,2.43,0,0,1-1.6,1.7,5.09,5.09,0,0,1-2.2.5h-1.5l4.1,4.4h-5.1l-3.8-4.1a.9.9,0,0,1-.2-.9c.3-.9,1.3-1.4,2.9-1.4h1.8c.8,0,1.2-.2,1.3-.6l.2-1q.15-.6-.9-.6h-4.6l-1.7,8.6h-4.3Z"/><polygon id="Fill-14" class="cls-2" points="20.86 46.15 21.36 43.75 33.86 43.75 33.46 46.15 29.26 46.15 27.66 54.75 23.46 54.75 25.06 46.15 20.86 46.15"/><polygon id="Fill-16" class="cls-2" points="32.86 54.75 35.26 43.75 39.86 43.75 37.56 54.75 32.86 54.75"/><path id="Fill-18" class="cls-2" d="M41,52.35l1.2-6a2.77,2.77,0,0,1,1.4-2,9.08,9.08,0,0,1,3.8-.5h8.5l-.5,2.4h-7.9a1.17,1.17,0,0,0-1.1.5l-.9,4.8c-.1.4,0,.7.2.8s.4.1.9.1h7.6l-.5,2.4h-9.2a7.72,7.72,0,0,1-1.5-.2c-1.5-.4-2.2-1.2-2-2.3"/><path id="Fill-20" class="cls-2" d="M62.46,48.15l5.4-4.4h5l-6.6,5.4,4.6,5.6h-5.1l-3.7-4.4a2.38,2.38,0,0,1-.6-1.1c0-.2.2-.4.4-.6Zm-6.6,6.6,2.2-11h4.4l-2.2,11Z"/><path id="Fill-22" class="cls-2" d="M72,52.55l1.2-6.3a1.69,1.69,0,0,1,.2-.5c.6-1.3,2.1-1.9,4.5-1.9h9l-.5,2.4h-7.9a.37.37,0,0,0-.3.1q-.75.15-.9.6l-.2,1.2h9l-.5,2.4h-8.9l-.2,1.2c-.1.4.2.7,1,.7h7.8l-.5,2.4h-8.4c-3.3-.1-4.7-.8-4.4-2.3"/><polygon id="Fill-24" class="cls-2" points="87.86 46.15 88.36 43.75 100.86 43.75 100.46 46.15 96.26 46.15 94.66 54.75 90.46 54.75 92.06 46.15 87.86 46.15"/><path id="Fill-26" class="cls-2" d="M102.56,46a1.42,1.42,0,0,1,.2-.6c.7-1.1,2.1-1.6,4.3-1.6h8.8l-.5,2.4h-7.6c-.6,0-1,.2-1,.5l-.1.7v.2c0,.3.4.4,1,.5h3.4a6.05,6.05,0,0,1,2.4.4q1.5.6,1.2,1.8l-.4,2.2a2.59,2.59,0,0,1-2,1.9,7.89,7.89,0,0,1-2.8.4H101l.5-2.4H109c.7-.1,1.1-.3,1.1-.6l.2-.8c.1-.3-.2-.5-.8-.5h-3.6a4.24,4.24,0,0,1-3.2-1,1.2,1.2,0,0,1-.4-1.2Z"/><path id="Fill-28" class="cls-3" d="M115.86,53.35c.1-.5.4-.9,1.2-1.2a4.53,4.53,0,0,1,1.6-.3,2.86,2.86,0,0,1,1.7.4c.4.3.6.6.5,1a1.86,1.86,0,0,1-.9,1.1,3.66,3.66,0,0,1-1.8.4,3.19,3.19,0,0,1-1.4-.3,1.15,1.15,0,0,1-.9-1.1"/><path id="Fill-30" class="cls-2" d="M123,52.35l1.2-6a2.77,2.77,0,0,1,1.4-2,9.08,9.08,0,0,1,3.8-.5h8.5l-.5,2.4h-7.9a1.17,1.17,0,0,0-1.1.5l-.9,4.8c-.1.4,0,.7.2.8s.4.1.9.1h7.6l-.5,2.4h-9.2a7.72,7.72,0,0,1-1.5-.2c-1.5-.4-2.2-1.2-2-2.3"/></g></g></svg>