<?xml version="1.0" encoding="utf-8"?>
<!-- Generator: Adobe Illustrator 26.3.1, SVG Export Plug-In . SVG Version: 6.00 Build 0)  -->
<svg version="1.1" id="Capa_1" xmlns="http://www.w3.org/2000/svg" xmlns:xlink="http://www.w3.org/1999/xlink" x="0px" y="0px"
	 viewBox="0 0 177 62" style="enable-background:new 0 0 177 62;" xml:space="preserve">
<style type="text/css">
	.st0{filter:url(#Adobe_OpacityMaskFilter);}
	.st1{fill-rule:evenodd;clip-rule:evenodd;fill:#FFFFFF;}
	.st2{mask:url(#mask-2_00000006670095120602328630000008903231847835974054_);fill-rule:evenodd;clip-rule:evenodd;fill:#F4AB18;}
	.st3{fill-rule:evenodd;clip-rule:evenodd;fill:#F4AB18;}
	.st4{fill-rule:evenodd;clip-rule:evenodd;fill:#FEFEFE;}
	.st5{filter:url(#Adobe_OpacityMaskFilter_00000174576572050376806070000009126291766228496046_);}
	.st6{mask:url(#mask-4_00000092448778615476698750000004177381821247719591_);fill-rule:evenodd;clip-rule:evenodd;fill:#FEFEFE;}
	.st7{fill:#F4AB18;}
	.st8{filter:url(#Adobe_OpacityMaskFilter_00000083807888233289331820000005967874838348927155_);}
	.st9{mask:url(#mask-2_00000131327409586509719600000016084084181968060038_);fill-rule:evenodd;clip-rule:evenodd;fill:#1E1F29;}
	.st10{fill:#FFFFFF;}
	.st11{filter:url(#Adobe_OpacityMaskFilter_00000031896188159021485430000001795917021490193801_);}
	.st12{mask:url(#mask-2_00000142889204764073238260000010363287039976870025_);fill-rule:evenodd;clip-rule:evenodd;fill:#1E1F29;}
	.st13{filter:url(#Adobe_OpacityMaskFilter_00000147195072796539663830000015326640747298629006_);}
	.st14{mask:url(#mask-4_00000158723323734793796970000005633518889605864877_);fill-rule:evenodd;clip-rule:evenodd;fill:#FFFFFF;}
	.st15{filter:url(#Adobe_OpacityMaskFilter_00000114074049390487417370000008826947000173837708_);}
	.st16{mask:url(#mask-2_00000152266621071377821560000002395952230948559805_);fill-rule:evenodd;clip-rule:evenodd;fill:#1E1F29;}
	.st17{filter:url(#Adobe_OpacityMaskFilter_00000062184959071981917680000002985815991392776116_);}
	.st18{mask:url(#mask-2_00000104698335045880294500000017688249569127967895_);fill-rule:evenodd;clip-rule:evenodd;fill:#1E1F29;}
	.st19{fill:#FCFCFC;}
	.st20{filter:url(#Adobe_OpacityMaskFilter_00000061461448428992244180000010010688644389975192_);}
	.st21{mask:url(#mask-2_00000075882375226725684600000016833675333365949359_);fill-rule:evenodd;clip-rule:evenodd;fill:#1E1F29;}
</style>
<g id="Welcome">
	<g id="Desktop-HD" transform="translate(-273.000000, -64.000000)">
		<g id="Group-37" transform="translate(273.000000, 64.000000)">
			<g id="Group-3">
				<g id="Clip-2">
				</g>
				<defs>
					<filter id="Adobe_OpacityMaskFilter" filterUnits="userSpaceOnUse" x="-21.2" y="130.3" width="110.8" height="61.3">
						<feColorMatrix  type="matrix" values="1 0 0 0 0  0 1 0 0 0  0 0 1 0 0  0 0 0 1 0"/>
					</filter>
				</defs>
				
					<mask maskUnits="userSpaceOnUse" x="-21.2" y="130.3" width="110.8" height="61.3" id="mask-2_00000006670095120602328630000008903231847835974054_">
					<g class="st0">
						<polygon id="path-1_00000005246478221883920500000006483135900586182287_" class="st1" points="-21.2,130.3 89.6,130.3 
							89.6,191.7 -21.2,191.7 						"/>
					</g>
				</mask>
				<path id="Fill-1" class="st2" d="M89.6,188.2H-1.5c-0.3,0-0.6-0.2-0.7-0.5L-16,150.5c-0.3-0.8,0.6-1.4,1.3-0.9l9.3,7.7
					c0.4,0.3,1,0.2,1.2-0.3l8.4-19.9c0.3-0.6,1.2-0.7,1.5,0l8.6,19c0.2,0.5,0.8,0.6,1.2,0.3l10.2-7.8c0.6-0.5,1.5,0.1,1.2,0.9
					l-1.8,5.5c-0.2,0.6,0.3,1.2,0.9,1l1.7-0.3c0.3-0.1,0.5-0.3,0.6-0.5l4.2-12.5c0.2-0.7-0.6-1.4-1.2-0.9l-14.3,10.1
					c-0.4,0.3-1,0.1-1.2-0.3L5.7,130.8c-0.3-0.6-1.2-0.6-1.4,0l-9.5,21.1c-0.2,0.5-0.8,0.6-1.2,0.3l-13.4-9.7
					c-0.6-0.5-1.5,0.2-1.2,0.9l17.6,47.7c0.1,0.3,0.4,0.5,0.8,0.5L89.6,188.2z"/>
			</g>
			<path id="Fill-4" class="st3" d="M1.9,167.5l1.6-8.3h4.3l-1.6,8.1c-0.1,0.3,0.3,0.5,1,0.5h7.6l-0.5,2.4h-8c-0.3,0-0.5,0-0.7,0
				c-1.5-0.1-2.6-0.3-3.1-0.7C1.9,169,1.7,168.3,1.9,167.5"/>
			<polygon id="Fill-6" class="st3" points="15.8,170.1 18.2,159.1 22.8,159.1 20.5,170.1 			"/>
			<path id="Fill-8" class="st3" d="M28.5,167.8h4.4c0.5,0,0.8,0,0.9-0.1c0.3-0.1,0.5-0.3,0.7-0.7c0,0,0-0.1,0.1-0.2l0.9-4.8
				c-0.1-0.3-0.5-0.5-1.4-0.5h-4.3L28.5,167.8z M23.8,170.1l2.1-11H36c2.8,0,4.1,0.8,3.8,2.4l-1.2,6.2c0,0.1-0.1,0.2-0.1,0.4
				c-0.5,1.3-2,2-4.4,2H23.8z"/>
			<path id="Fill-10" class="st3" d="M40.9,167.9l1.2-6.3c0-0.1,0.1-0.3,0.2-0.5c0.6-1.3,2.1-1.9,4.5-1.9h9l-0.5,2.4h-7.9
				c-0.1,0-0.2,0-0.3,0.1c-0.5,0.1-0.8,0.3-0.9,0.6l-0.2,1.2H55l-0.5,2.4h-8.9l-0.2,1.2c-0.1,0.4,0.2,0.7,1,0.7h7.8l-0.5,2.4h-8.4
				C42,170.1,40.6,169.4,40.9,167.9"/>
			<path id="Fill-12" class="st3" d="M59,159.1h10.1c2.8,0,4,0.7,3.7,2.2l-0.4,2.2c-0.1,0.7-0.7,1.3-1.6,1.7
				c-0.6,0.3-1.4,0.5-2.2,0.5c-0.3,0-0.6,0-0.8,0l-0.7,0l4.1,4.4h-5.1l-3.8-4.1c-0.2-0.2-0.3-0.5-0.2-0.9c0.3-0.9,1.3-1.4,2.9-1.4
				h1.8c0.8,0,1.2-0.2,1.3-0.6l0.2-1c0.1-0.4-0.2-0.6-0.9-0.6c-0.1,0-0.1,0-0.3,0h-4.3l-1.7,8.6h-4.3L59,159.1z"/>
			<polygon id="Fill-14" class="st4" points="-0.2,176.5 0.3,174.1 12.8,174.1 12.4,176.5 8.2,176.5 6.6,185.1 2.4,185.1 4,176.5 
							"/>
			<polygon id="Fill-16" class="st4" points="11.8,185.1 14.2,174.1 18.8,174.1 16.5,185.1 			"/>
			<path id="Fill-18" class="st4" d="M19.9,182.7l1.2-6c0.2-1,0.7-1.6,1.4-2c0.8-0.4,2-0.5,3.8-0.5h8.5l-0.5,2.4h-7.9
				c-0.6,0-0.9,0.2-1.1,0.5l-0.9,4.8c-0.1,0.4,0,0.7,0.2,0.8c0.1,0.1,0.4,0.1,0.9,0.1h0.4h7.2l-0.5,2.4h-9.2c-0.5,0-1-0.1-1.5-0.2
				C20.4,184.6,19.7,183.8,19.9,182.7"/>
			<path id="Fill-20" class="st4" d="M41.4,178.5l5.4-4.4h5l-6.6,5.4l4.6,5.6h-5.1l-3.7-4.4c-0.4-0.5-0.6-0.9-0.6-1.1
				c0-0.2,0.2-0.4,0.4-0.6L41.4,178.5z M34.8,185.1l2.2-11h4.4l-2.2,11H34.8z"/>
			<path id="Fill-22" class="st4" d="M50.9,182.9l1.2-6.3c0-0.1,0.1-0.3,0.2-0.5c0.6-1.3,2.1-1.9,4.5-1.9h9l-0.5,2.4h-7.9
				c-0.1,0-0.2,0-0.3,0.1c-0.5,0.1-0.8,0.3-0.9,0.6l-0.2,1.2H65l-0.5,2.4h-8.9l-0.2,1.2c-0.1,0.4,0.2,0.7,1,0.7h7.8l-0.5,2.4h-8.4
				C52,185.1,50.6,184.4,50.9,182.9"/>
			<polygon id="Fill-24" class="st4" points="66.8,176.5 67.3,174.1 79.8,174.1 79.4,176.5 75.2,176.5 73.6,185.1 69.4,185.1 
				71,176.5 			"/>
			<path id="Fill-26" class="st4" d="M81.5,176.3c0-0.2,0.1-0.4,0.2-0.6c0.7-1.1,2.1-1.6,4.3-1.6h8.8l-0.5,2.4l-7.6,0
				c-0.6,0-1,0.2-1,0.5l-0.1,0.7c0,0.1,0,0.1,0,0.2c0,0.3,0.4,0.4,1,0.5h0.3H90c0.9,0,1.7,0.1,2.4,0.4c1,0.4,1.4,1,1.2,1.8l-0.4,2.2
				c-0.2,0.9-0.8,1.5-2,1.9c-0.8,0.3-1.7,0.4-2.8,0.4h-8.5l0.5-2.4h7.5c0.7-0.1,1.1-0.3,1.1-0.6l0.2-0.8c0.1-0.3-0.2-0.5-0.8-0.5
				h-3.6c-1.5,0-2.5-0.3-3.2-1c-0.4-0.4-0.5-0.8-0.4-1.2L81.5,176.3z"/>
			<path id="Fill-28" class="st1" d="M94.8,183.7c0.1-0.5,0.4-0.9,1.2-1.2c0.5-0.2,1.1-0.3,1.6-0.3c0.7,0,1.3,0.1,1.7,0.4
				c0.4,0.3,0.6,0.6,0.5,1c-0.1,0.4-0.4,0.8-0.9,1.1c-0.5,0.3-1.2,0.4-1.8,0.4c-0.5,0-1-0.1-1.4-0.3
				C95.1,184.6,94.8,184.2,94.8,183.7"/>
			<path id="Fill-30" class="st4" d="M101.9,182.7l1.2-6c0.2-1,0.7-1.6,1.4-2c0.8-0.4,2-0.5,3.8-0.5h8.5l-0.5,2.4h-7.9
				c-0.6,0-0.9,0.2-1.1,0.5l-0.9,4.8c-0.1,0.4,0,0.7,0.2,0.8c0.1,0.1,0.4,0.1,0.9,0.1h0.4h7.2l-0.5,2.4h-9.2c-0.5,0-1-0.1-1.5-0.2
				C102.4,184.6,101.7,183.8,101.9,182.7"/>
			<path id="Fill-32" class="st4" d="M122.4,177.3l-0.9,4.7c-0.1,0.5,0.3,0.8,1.3,0.8h2.8c1,0,1.5-0.2,1.6-0.7l1-4.8
				c0.1-0.5-0.3-0.8-1.3-0.8h-2.8C123.1,176.5,122.5,176.8,122.4,177.3L122.4,177.3z M118.1,176.5c0-0.2,0.1-0.4,0.2-0.6
				c0.7-1.2,2.4-1.8,5-1.8h5.3c3.1,0,4.5,0.8,4.2,2.4l-1.3,6.3c-0.3,1.6-2,2.4-5.2,2.4h-5.3c-1.4,0-2.5-0.1-3.1-0.4
				c-0.6-0.3-1-0.7-1.1-1.4c0-0.2,0-0.4,0-0.6L118.1,176.5z"/>
			<g id="Group-36" transform="translate(155.000000, 43.000000)">
				<g id="Clip-35">
				</g>
				<defs>
					
						<filter id="Adobe_OpacityMaskFilter_00000060725812363414073410000014442324578211542452_" filterUnits="userSpaceOnUse" x="-21" y="130.5" width="21.8" height="11.2">
						<feColorMatrix  type="matrix" values="1 0 0 0 0  0 1 0 0 0  0 0 1 0 0  0 0 0 1 0"/>
					</filter>
				</defs>
				
					<mask maskUnits="userSpaceOnUse" x="-21" y="130.5" width="21.8" height="11.2" id="mask-4_00000092448778615476698750000004177381821247719591_">
					<g style="filter:url(#Adobe_OpacityMaskFilter_00000060725812363414073410000014442324578211542452_);">
						<polygon id="path-3_00000098179076196427863500000006519922385892332675_" class="st1" points="-21,130.5 0.8,130.5 
							0.8,141.7 -21,141.7 						"/>
					</g>
				</mask>
				<path id="Fill-34" class="st6" d="M-21,141.5l1.7-9c0.1-0.6,0.6-1.1,1.3-1.5c0.8-0.4,1.7-0.6,2.8-0.6c0.4,0,0.7,0,1.1,0.1
					c1.4,0.2,2.1,0.6,2.3,1.4l1.3,6.3l4-6.3c0.5-0.7,1.4-1.2,2.8-1.4c0.4,0,0.8-0.1,1.2-0.1c1.1,0,2,0.2,2.6,0.6
					c0.6,0.4,0.9,0.9,0.7,1.5l-1.7,9h-4.1l1.5-7.8l-4.4,6.5c-0.2,0.3-0.4,0.5-0.6,0.7c-0.6,0.5-1.4,0.8-2.6,0.8
					c-1.4,0-2.3-0.5-2.5-1.5l-1.8-6.5l-1.5,7.8H-21z"/>
			</g>
		</g>
	</g>
</g>
<path id="Fill-12_00000162310419048067554520000011085128016906707119_" class="st3" d="M-201.6,255.6"/>
<rect x="-590.1" y="57.6" class="st7" width="499" height="147"/>
<g id="Group-3_00000042730588750946415500000014332370300577157561_">
	<g id="Clip-2_00000102507050175712219450000004659523240687221926_">
	</g>
	<defs>
		
			<filter id="Adobe_OpacityMaskFilter_00000096052460183559749350000017033709847390488984_" filterUnits="userSpaceOnUse" x="-903.9" y="-52.5" width="248.2" height="137.4">
			<feColorMatrix  type="matrix" values="1 0 0 0 0  0 1 0 0 0  0 0 1 0 0  0 0 0 1 0"/>
		</filter>
	</defs>
	
		<mask maskUnits="userSpaceOnUse" x="-903.9" y="-52.5" width="248.2" height="137.4" id="mask-2_00000131327409586509719600000016084084181968060038_">
		<g style="filter:url(#Adobe_OpacityMaskFilter_00000096052460183559749350000017033709847390488984_);">
			<polygon id="path-1_00000091693331933604306420000000118856329103273385_" class="st1" points="-903.9,-52.5 -655.7,-52.5 
				-655.7,84.8 -903.9,84.8 			"/>
		</g>
	</mask>
	<path id="Fill-1_00000134246476800879453730000015325619561213249714_" class="st9" d="M-655.7,77h-204.1c-0.7,0-1.4-0.5-1.7-1.2
		l-30.8-83.3c-0.6-1.7,1.4-3.2,2.8-2l20.8,17.3c0.9,0.8,2.3,0.4,2.8-0.7l18.8-44.5c0.6-1.4,2.6-1.5,3.3,0l19.2,42.5
		c0.5,1.1,1.8,1.4,2.7,0.7l22.9-17.5c1.4-1.1,3.3,0.3,2.8,2l-4.1,12.3c-0.4,1.3,0.7,2.6,2,2.3l3.8-0.8c0.6-0.1,1.1-0.6,1.3-1.2
		l9.4-28c0.6-1.7-1.3-3.1-2.7-2.1l-31.9,22.6c-0.9,0.6-2.1,0.3-2.6-0.7l-22.9-46.3c-0.7-1.4-2.6-1.3-3.2,0.1l-21.4,47.2
		c-0.5,1-1.8,1.4-2.7,0.7l-30-21.7c-1.4-1-3.3,0.4-2.7,2.1l39.5,106.9c0.3,0.7,1,1.2,1.7,1.2L-655.7,77z"/>
</g>
<g>
	<path class="st10" d="M-329.6-70c-0.7,3.7-2.6,6.8-5.8,9.4c-3.2,2.6-6.6,3.8-10.4,3.8h-24.8l7.4-42.2h23.9c3.2,0,5.9,1,8,3
		c2.2,2,3.3,4.5,3.3,7.6c0,0.7-0.1,1.4-0.2,2.2l-0.1,0.3c-0.4,2.5-1.5,4.8-3.3,6.8c1.4,1.9,2.2,4.1,2.2,6.6c0,0.7-0.1,1.5-0.2,2.2
		L-329.6-70z M-341.6-70l0.1-0.3c0.1-0.6,0-1.1-0.2-1.7c-0.3-0.5-0.6-0.8-1.2-0.8h-9l1.9-10.8h8.4c0.4,0,0.8-0.3,1.2-0.9
		c0.3-0.5,0.5-1,0.6-1.5l0.1-0.3c0.1-0.5,0-1.1-0.2-1.6c-0.2-0.5-0.6-0.8-1.2-0.8H-353l-3.7,21.1h12.9c0.5,0,1-0.3,1.5-0.9
		C-342-68.9-341.7-69.4-341.6-70z"/>
	<path class="st10" d="M-286.7-70c-0.7,3.7-2.6,6.8-5.8,9.4c-3.2,2.6-6.6,3.8-10.4,3.8h-11c-3.3,0-6.1-1-8.3-3.1
		c-2.2-2.1-3.3-4.7-3.3-7.9c0-0.7,0.1-1.5,0.2-2.2l5.1-28.9h12l-5.1,29c-0.1,0.6,0,1.1,0.2,1.6c0.3,0.6,0.6,0.9,1.2,0.9h11
		c0.5,0,1-0.3,1.5-0.9c0.4-0.5,0.6-1,0.8-1.6l5.1-29h11.9L-286.7-70z"/>
	<path class="st10" d="M-243.8-70c-0.6,3.7-2.6,6.8-5.8,9.4c-3.2,2.6-6.6,3.8-10.4,3.8h-22.9l1.9-10.8h22.9c0.5,0,1-0.3,1.5-0.9
		c0.4-0.5,0.7-1,0.8-1.6c0.1-0.7,0.1-1.3-0.2-1.8c-0.3-0.5-0.7-0.7-1.2-0.7h-11c-3.4,0-6.2-1-8.4-3.1c-2.2-2.1-3.3-4.7-3.3-7.9
		c0-0.7,0.1-1.5,0.2-2.2c0.6-3.7,2.6-6.8,5.8-9.5c3.2-2.5,6.6-3.8,10.3-3.8h21.6l-1.9,10.8h-21.5c-0.6,0-1.1,0.3-1.5,0.8
		c-0.4,0.5-0.7,1.1-0.8,1.7c-0.1,0.7,0,1.3,0.2,1.8c0.3,0.5,0.7,0.7,1.2,0.7h10.9c3.4,0,6.2,1,8.4,3.1c2.2,2.1,3.3,4.7,3.3,7.9
		C-243.6-71.5-243.7-70.8-243.8-70z"/>
	<path class="st10" d="M-208.3-56.8h-21.4c-3.3,0-6.1-1-8.3-3.1c-2.2-2.1-3.3-4.7-3.3-7.9c0-0.7,0.1-1.5,0.2-2.2l2.8-15.7
		c0.6-3.7,2.6-6.8,5.8-9.5c3.2-2.5,6.6-3.8,10.3-3.8h21.5l-1.9,10.8h-21.4c-0.6,0-1.1,0.3-1.5,0.8c-0.4,0.5-0.7,1.1-0.8,1.6
		l-2.7,15.8c-0.1,0.6,0,1.1,0.2,1.6c0.3,0.6,0.6,0.9,1.2,0.9h21.5L-208.3-56.8z"/>
	<path class="st10" d="M-160.2-56.8h-12.3l-0.5-6.2h-16l-2.7,6.2h-12.3l14.9-33.4c1.3-2.9,3.3-5.2,6-6.9c2.7-1.8,5.6-2.6,8.6-2.6
		c3,0,5.6,0.9,7.7,2.6c2.1,1.8,3.3,4.1,3.5,6.9L-160.2-56.8z M-174.1-73.7l-1.3-14c-0.1-0.9-0.4-1.3-1.1-1.3c-0.6,0-1.1,0.4-1.5,1.3
		l-6.2,14H-174.1z"/>
	<path class="st10" d="M-117.6-56.8h-12l-2.6-10.7c-0.4-1.6-1.1-2.4-2.2-2.4h-9.5l-2.3,13.1h-11.9l7.4-42.2h24.8
		c3.3,0,6.1,1,8.3,3.1c2.3,2.1,3.4,4.7,3.4,7.9c0,0.7-0.1,1.5-0.2,2.2l-0.4,2.6c-0.8,4.3-3.2,7.8-7.3,10.5c0.7,1.4,1.3,3.2,1.8,5.2
		L-117.6-56.8z M-126.8-83.1l0.5-2.6c0.1-0.6,0-1.1-0.2-1.7c-0.2-0.5-0.6-0.8-1.2-0.8h-12.8l-1.3,7.5h12.8c0.5,0,1-0.3,1.5-0.8
		C-127.2-82-126.9-82.5-126.8-83.1z"/>
</g>
<g>
	<g id="Group-3_00000112617142293020867160000009458701170858310575_">
		<g id="Clip-2_00000062154197725459731240000009539029699811593131_">
		</g>
		<defs>
			
				<filter id="Adobe_OpacityMaskFilter_00000060717448232266792310000003189709018505626005_" filterUnits="userSpaceOnUse" x="-1090.8" y="658.5" width="244.6" height="135.4">
				<feColorMatrix  type="matrix" values="1 0 0 0 0  0 1 0 0 0  0 0 1 0 0  0 0 0 1 0"/>
			</filter>
		</defs>
		
			<mask maskUnits="userSpaceOnUse" x="-1090.8" y="658.5" width="244.6" height="135.4" id="mask-2_00000142889204764073238260000010363287039976870025_">
			<g style="filter:url(#Adobe_OpacityMaskFilter_00000060717448232266792310000003189709018505626005_);">
				<polygon id="path-1_00000068649784580643121640000005994078939431695293_" class="st1" points="-1090.8,658.5 -846.2,658.5 
					-846.2,793.9 -1090.8,793.9 				"/>
			</g>
		</mask>
		<path id="Fill-1_00000006668963655683949180000011080363414568350643_" class="st12" d="M-846.2,786.2h-201.2
			c-0.7,0-1.4-0.5-1.7-1.2l-30.3-82.1c-0.6-1.7,1.4-3.1,2.8-2l20.5,17c0.9,0.8,2.3,0.4,2.7-0.7l18.6-43.8c0.6-1.4,2.6-1.4,3.2,0
			l18.9,41.9c0.5,1,1.8,1.4,2.7,0.7l22.6-17.3c1.4-1.1,3.3,0.3,2.7,2l-4,12.1c-0.4,1.3,0.7,2.6,2,2.3l3.7-0.7
			c0.6-0.1,1.1-0.6,1.3-1.2l9.3-27.6c0.5-1.6-1.3-3-2.7-2l-31.5,22.2c-0.9,0.6-2.1,0.3-2.6-0.7l-22.6-45.6c-0.7-1.3-2.6-1.3-3.2,0.1
			l-21.1,46.5c-0.5,1-1.7,1.4-2.6,0.7l-29.6-21.4c-1.4-1-3.3,0.4-2.7,2.1l38.9,105.3c0.3,0.7,1,1.2,1.7,1.2L-846.2,786.2z"/>
	</g>
	<polygon id="Fill-14_00000031187503379038231920000015734161741633141158_" class="st4" points="-1044.4,760.4 -1043.5,755.2 
		-1015.7,755.2 -1016.7,760.4 -1026,760.4 -1029.6,779.5 -1038.8,779.5 -1035.2,760.4 	"/>
	<polygon id="Fill-16_00000111899191993597295850000004559596422365233849_" class="st4" points="-1017.9,779.5 -1012.8,755.2 
		-1002.5,755.2 -1007.6,779.5 	"/>
	<path id="Fill-18_00000109739771783538253050000017957167670446739119_" class="st4" d="M-1000.2,774.1l2.6-13.4
		c0.4-2.1,1.5-3.6,3.1-4.4c1.7-0.8,4.5-1.2,8.5-1.2h18.8l-1,5.2h-17.4c-1.3,0.1-2.1,0.5-2.5,1.1l-2.1,10.7c-0.2,0.9,0,1.5,0.5,1.8
		c0.3,0.2,0.9,0.3,1.9,0.3h0.8h16l-1,5.3h-20.2c-1.1,0-2.2-0.1-3.3-0.4C-999.1,778.3-1000.7,776.6-1000.2,774.1"/>
	<path id="Fill-20_00000064318735369283623970000012484608765732638137_" class="st4" d="M-952.6,764.9l11.8-9.6h11.1l-14.6,11.9
		l10.2,12.3h-11.2l-8.2-9.8c-1-1.2-1.4-2-1.3-2.5c0.1-0.4,0.3-0.8,0.8-1.3L-952.6,764.9z M-967.2,779.5l4.8-24.3h9.7l-4.8,24.3
		H-967.2z"/>
	<path id="Fill-22_00000114777832567932486020000016317309142235926451_" class="st4" d="M-931.7,774.4l2.7-14
		c0.1-0.3,0.2-0.7,0.4-1.1c1.4-2.8,4.7-4.2,10-4.2h19.9l-1,5.2h-17.4c-0.1,0-0.4,0.1-0.6,0.1c-1.1,0.2-1.8,0.7-1.9,1.4l-0.5,2.7
		h19.6l-1,5.3h-19.6l-0.5,2.7c-0.2,1,0.5,1.5,2.2,1.6h17.1l-1,5.3H-922C-929.2,779.5-932.4,777.8-931.7,774.4"/>
	<polygon id="Fill-24_00000155859646600915714810000010742989130389867196_" class="st4" points="-896.5,760.4 -895.5,755.2 
		-867.8,755.2 -868.8,760.4 -878,760.4 -881.6,779.5 -890.9,779.5 -887.3,760.4 	"/>
	<path id="Fill-26_00000068654501174549406340000001186011030116578714_" class="st4" d="M-864.1,760c0.1-0.4,0.2-0.8,0.5-1.2
		c1.6-2.4,4.7-3.6,9.5-3.6h19.4l-1,5.2l-16.8,0.1c-1.4,0-2.2,0.4-2.3,1.1l-0.3,1.6c0,0.2,0,0.3,0,0.3c0.1,0.6,0.8,1,2.2,1.1h0.6h6.9
		c2.1,0,3.8,0.3,5.3,0.9c2.2,0.8,3.1,2.1,2.8,3.9l-1,4.9c-0.4,1.9-1.9,3.4-4.5,4.2c-1.8,0.6-3.8,0.9-6.1,0.9h-18.9l1-5.3h16.6
		c1.5-0.3,2.4-0.7,2.5-1.4l0.3-1.8c0.1-0.7-0.5-1.1-1.8-1.1h-7.9c-3.2,0-5.6-0.7-7-2.2c-0.8-0.8-1.2-1.7-1-2.6L-864.1,760z"/>
	<g>
		<path id="Fill-12_00000165207630906269256300000007108271910370496903_" class="st1" d="M-881.1,721.1h22.3c6.1,0,8.9,1.6,8.2,4.9
			l-0.9,4.9c-0.3,1.6-1.5,2.8-3.4,3.7c-1.4,0.6-3,1-4.8,1.1c-0.7,0-1.3,0.1-1.7,0.1l-1.5-0.1l9,9.6h-11.3l-8.3-9
			c-0.5-0.5-0.6-1.2-0.4-1.9c0.7-2.1,2.8-3.1,6.3-3.1h3.9c1.7,0,2.6-0.4,2.8-1.3l0.4-2.2c0.2-0.8-0.5-1.3-2.1-1.4
			c-0.1,0-0.3-0.1-0.6-0.1h-9.5l-3.7,19.1h-9.5L-881.1,721.1z"/>
		<path id="Fill-12_00000173867161946356680930000016079611650970493585_" class="st1" d="M-810.4,721.1h22.3c6.1,0,8.9,1.6,8.2,4.9
			l-0.9,4.9c-0.3,1.6-1.5,2.8-3.4,3.7c-1.4,0.6-3,1-4.8,1.1c-0.7,0-1.3,0.1-1.7,0.1l-1.5-0.1l9,9.6h-11.3l-8.3-9
			c-0.5-0.5-0.6-1.2-0.4-1.9c0.7-2.1,2.8-3.1,6.3-3.1h3.9c1.7,0,2.6-0.4,2.8-1.3l0.4-2.2c0.2-0.8-0.5-1.3-2.1-1.4
			c-0.1,0-0.3-0.1-0.6-0.1h-9.5l-3.7,19.1h-9.5L-810.4,721.1z"/>
		<path id="Fill-12_00000040535284413883267560000000561797590493284271_" class="st1" d="M-908.8,736.4c-0.5-0.5-0.6-1.2-0.4-1.9
			c0.7-2.1,2.8-3.1,6.3-3.1h3.9c1.7,0,2.6-0.4,2.8-1.3l0.4-2.2c0.2-0.8-0.5-1.3-2.1-1.4c-0.1,0-0.3-0.1-0.6-0.1h-9.5l-3.7,19.1h-9.5
			l4.7-24.3h22.3c6.1,0,8.9,1.6,8.2,4.9l-0.9,4.9c-0.3,1.6-1.5,2.8-3.4,3.7c-1.4,0.6-3,1-4.8,1.1c-0.7,0-1.3,0.1-1.7,0.1"/>
		<path id="Fill-30_00000033335834968718944750000004680393039218026647_" class="st1" d="M-1042.1,740l2.6-13.4
			c0.4-2.1,1.5-3.6,3.1-4.4c1.7-0.8,4.5-1.2,8.5-1.2h18.8l-1,5.2h-17.4c-1.3,0.1-2.1,0.5-2.5,1.1l-2.1,10.7c-0.2,0.9,0,1.5,0.5,1.8
			c0.3,0.2,0.9,0.3,1.9,0.3h0.8h16l-1,5.3h-20.2c-1.1,0-2.2-0.1-3.3-0.4C-1041,744.2-1042.6,742.5-1042.1,740"/>
		<path id="Fill-32_00000149359816622667277130000014881116888467402896_" class="st1" d="M-996.7,728l-2,10.5
			c-0.2,1.1,0.7,1.7,2.9,1.7h6.1c2.2,0,3.4-0.5,3.6-1.5l2.1-10.7c0.2-1.1-0.7-1.7-2.9-1.7h-6.1C-995.2,726.3-996.4,726.9-996.7,728
			L-996.7,728z M-1006.2,726.3c0.1-0.4,0.3-0.8,0.5-1.3c1.6-2.6,5.2-3.9,11-3.9h11.7c6.9,0,10,1.7,9.3,5.2l-2.8,13.8
			c-0.7,3.5-4.5,5.3-11.4,5.3h-11.6c-3.2,0-5.4-0.3-6.9-0.9c-1.4-0.6-2.2-1.6-2.5-3.1c-0.1-0.4-0.1-0.9,0-1.2L-1006.2,726.3z"/>
		<g id="Group-36_00000033351952247856156420000008575778042853657776_" transform="translate(155.000000, 43.000000)">
			<g id="Clip-35_00000134230029042982562330000016965531468424379037_">
			</g>
			<defs>
				
					<filter id="Adobe_OpacityMaskFilter_00000062188031055851879990000000523273902875562123_" filterUnits="userSpaceOnUse" x="-1126.2" y="677.9" width="48.1" height="24.8">
					<feColorMatrix  type="matrix" values="1 0 0 0 0  0 1 0 0 0  0 0 1 0 0  0 0 0 1 0"/>
				</filter>
			</defs>
			
				<mask maskUnits="userSpaceOnUse" x="-1126.2" y="677.9" width="48.1" height="24.8" id="mask-4_00000158723323734793796970000005633518889605864877_">
				<g style="filter:url(#Adobe_OpacityMaskFilter_00000062188031055851879990000000523273902875562123_);">
					<polygon id="path-3_00000016057823272464844410000007653142613017797052_" class="st1" points="-1126.2,677.9 -1078.1,677.9 
						-1078.1,702.7 -1126.2,702.7 					"/>
				</g>
			</mask>
			<path id="Fill-34_00000072999804112364255250000013599445309726610838_" class="st14" d="M-1126.2,702.2l3.9-19.8
				c0.3-1.3,1.2-2.4,2.9-3.3c1.7-0.8,3.8-1.3,6.2-1.3c0.8,0,1.6,0,2.5,0.1c3,0.4,4.6,1.4,5,3l2.8,13.8l8.8-13.8
				c1.1-1.6,3.1-2.6,6.1-3c0.9-0.1,1.7-0.1,2.6-0.1c2.4,0,4.3,0.4,5.7,1.3c1.3,0.8,1.9,1.9,1.6,3.3l-3.9,19.8h-9l3.4-17.2l-9.7,14.4
				c-0.4,0.6-0.8,1.1-1.3,1.5c-1.3,1.2-3.2,1.8-5.7,1.8c-3.1,0-5-1.1-5.6-3.3l-4-14.4l-3.4,17.2H-1126.2z"/>
		</g>
		<path class="st1" d="M-823.8,721.1h-11.7c-5.7,0-9.4,1.3-11,3.9c-0.3,0.5-0.4,0.9-0.5,1.3l-2.7,13.9l-1.1,5.2h10
			c1.1-5.7,1.1-5.8,1.3-6.9l0.5-2.3h12.8l-1.6,9.3h9.4l3.8-19.1C-813.9,722.9-816.9,721.1-823.8,721.1z M-838.2,732.3l0.8-4.3
			c0.2-1.1,1.4-1.7,3.7-1.7h6.1c2.2,0,3.2,0.6,2.9,1.7l-0.7,4.3H-838.2z"/>
	</g>
</g>
<g id="Group-3_00000069376841858550522580000013363468524350719398_">
	<g id="Clip-2_00000016770290034175182150000007139048642725606800_">
	</g>
	<defs>
		
			<filter id="Adobe_OpacityMaskFilter_00000078753988992520626640000014435144840203164073_" filterUnits="userSpaceOnUse" x="-631.7" y="605.3" width="244.6" height="135.4">
			<feColorMatrix  type="matrix" values="1 0 0 0 0  0 1 0 0 0  0 0 1 0 0  0 0 0 1 0"/>
		</filter>
	</defs>
	
		<mask maskUnits="userSpaceOnUse" x="-631.7" y="605.3" width="244.6" height="135.4" id="mask-2_00000152266621071377821560000002395952230948559805_">
		<g style="filter:url(#Adobe_OpacityMaskFilter_00000078753988992520626640000014435144840203164073_);">
			<polygon id="path-1_00000077323811990145286620000004124290096428639647_" class="st1" points="-631.7,605.3 -387.1,605.3 
				-387.1,740.7 -631.7,740.7 			"/>
		</g>
	</mask>
	<path id="Fill-1_00000129180007470459890990000007263988513170704516_" class="st16" d="M-387.1,733h-201.2c-0.7,0-1.4-0.5-1.7-1.2
		l-30.3-82.1c-0.6-1.7,1.4-3.1,2.8-2l20.5,17c0.9,0.8,2.3,0.4,2.7-0.7l18.6-43.8c0.6-1.4,2.6-1.4,3.2,0l18.9,41.9
		c0.5,1,1.8,1.4,2.7,0.7l22.6-17.3c1.4-1.1,3.3,0.3,2.7,2l-4,12.1c-0.4,1.3,0.7,2.6,2,2.3l3.7-0.7c0.6-0.1,1.1-0.6,1.3-1.2l9.3-27.6
		c0.5-1.6-1.3-3-2.7-2l-31.5,22.2c-0.9,0.6-2.1,0.3-2.6-0.7l-22.6-45.6c-0.7-1.3-2.6-1.3-3.2,0.1l-21.1,46.5c-0.5,1-1.7,1.4-2.6,0.7
		l-29.6-21.4c-1.4-1-3.3,0.4-2.7,2.1l38.9,105.3c0.3,0.7,1,1.2,1.7,1.2L-387.1,733z"/>
</g>
<g id="Clip-35_00000152263874059370772460000010241852911577116059_">
</g>
<g id="Group-3_00000063599039499382474310000006248893962193940666_">
	<g id="Clip-2_00000030457136277868804830000003556672018225698450_">
	</g>
	<defs>
		
			<filter id="Adobe_OpacityMaskFilter_00000021077813089677421010000010473271674405156759_" filterUnits="userSpaceOnUse" x="-1181.3" y="114.5" width="244.6" height="135.4">
			<feColorMatrix  type="matrix" values="1 0 0 0 0  0 1 0 0 0  0 0 1 0 0  0 0 0 1 0"/>
		</filter>
	</defs>
	
		<mask maskUnits="userSpaceOnUse" x="-1181.3" y="114.5" width="244.6" height="135.4" id="mask-2_00000104698335045880294500000017688249569127967895_">
		<g style="filter:url(#Adobe_OpacityMaskFilter_00000021077813089677421010000010473271674405156759_);">
			<polygon id="path-1_00000067199484749917006220000012833326080468739500_" class="st1" points="-1181.3,114.5 -936.7,114.5 
				-936.7,249.8 -1181.3,249.8 			"/>
		</g>
	</mask>
	<path id="Fill-1_00000098220320213084820400000003838083007279934893_" class="st18" d="M-936.7,242.1h-201.2
		c-0.7,0-1.4-0.5-1.7-1.2l-30.3-82.1c-0.6-1.7,1.4-3.1,2.8-2l20.5,17c0.9,0.8,2.3,0.4,2.7-0.7l18.6-43.8c0.6-1.4,2.6-1.4,3.2,0
		l18.9,41.9c0.5,1,1.8,1.4,2.7,0.7l22.6-17.3c1.4-1.1,3.3,0.3,2.7,2l-4,12.1c-0.4,1.3,0.7,2.6,2,2.3l3.7-0.7
		c0.6-0.1,1.1-0.6,1.3-1.2l9.3-27.6c0.5-1.6-1.3-3-2.7-2l-31.5,22.2c-0.9,0.6-2.1,0.3-2.6-0.7l-22.6-45.6c-0.7-1.3-2.6-1.3-3.2,0.1
		l-21.1,46.5c-0.5,1-1.7,1.4-2.6,0.7l-29.6-21.4c-1.4-1-3.3,0.4-2.7,2.1l38.9,105.3c0.3,0.7,1,1.2,1.7,1.2L-936.7,242.1z"/>
</g>
<g>
	<g>
		<path class="st19" d="M-1073.3,215.1c-0.9,3.5-3.3,6.7-7.7,9.1c-4.4,2.5-9.3,3.5-14.4,3.5h-34.8l7.8-40.3h35.9
			c4.4,0,9.3,0.4,12.3,2.3c3,1.9,3.2,4.9,3.2,7.8c0,0.7-0.1,1.4-0.3,2.1l-0.1,0.3c-0.6,2.4-2.1,4.5-4.5,6.5c2,1.8,2.9,3.9,2.9,6.3
			c0,0.7-0.1,1.4-0.2,2.1L-1073.3,215.1z M-1089.7,215.1l0.1-0.3c0.1-0.6,0-1.1-0.3-1.6c-0.3-0.5-0.9-0.8-1.6-0.8h-19.7l1.7-10.3
			h19.8c0.6,0,1.2-0.3,1.7-0.8c0.4-0.4,0.7-0.9,0.8-1.5l0.1-0.3c0.1-0.5,0.1-1-0.3-1.5c-0.3-0.5-0.8-0.8-1.6-0.8h-19.3l-3.2,20.2
			h18.8c0.7,0,1.4-0.3,2.1-0.8C-1090.2,216.1-1089.9,215.6-1089.7,215.1z"/>
	</g>
	<path id="Fill-26_00000043453250585987719120000009044382467125069201_" class="st4" d="M-1005.7,195.4c0.1-0.7,0.4-1.3,0.8-2
		c2.6-3.9,7.8-5.9,15.7-5.9h32.1l-1.7,8.6l-27.9,0.1c-2.3,0.1-3.6,0.7-3.8,1.9l-0.5,2.7c-0.1,0.3-0.1,0.5,0,0.6
		c0.1,1,1.3,1.6,3.6,1.8h1h11.4c3.4,0,6.3,0.5,8.7,1.5c3.6,1.3,5.1,3.5,4.6,6.5l-1.6,8.2c-0.6,3.2-3.1,5.5-7.4,7
		c-2.9,1-6.3,1.5-10.1,1.5h-31.2l1.7-8.7h27.5c2.5-0.4,3.9-1.2,4.1-2.3l0.6-2.9c0.2-1.1-0.8-1.7-3-1.9h-13.2
		c-5.3,0-9.2-1.2-11.6-3.6c-1.4-1.3-1.9-2.8-1.6-4.4L-1005.7,195.4z"/>
	<path id="Fill-30_00000158016411113087937430000017470808548110252705_" class="st1" d="M-957.9,218.7l4.3-22.1
		c0.7-3.5,2.4-5.9,5.2-7.2c2.8-1.3,7.4-2,14-2h31.1l-1.7,8.6h-28.9c-2.1,0.2-3.4,0.7-4.1,1.8l-3.5,17.6c-0.3,1.5,0,2.5,0.9,3
		c0.5,0.3,1.6,0.4,3.2,0.4h1.3h26.5l-1.7,8.7h-33.5c-1.8,0-3.6-0.2-5.4-0.7C-956.1,225.6-958.8,222.9-957.9,218.7"/>
	<path id="Fill-12_00000039124532928002908430000005633187071484852117_" class="st1" d="M-836.9,187.4h36.9
		c10.1,0,14.7,2.7,13.6,8.2l-1.6,8c-0.5,2.6-2.4,4.7-5.7,6.1c-2.3,1-4.9,1.7-7.9,1.9c-1.2,0.1-2.1,0.1-2.8,0.1l-2.4-0.1l14.9,16
		h-18.7l-13.7-15c-0.8-0.9-1.1-1.9-0.6-3.1c1.2-3.4,4.7-5.1,10.5-5.1h6.4c2.8,0,4.3-0.7,4.6-2.2l0.7-3.7c0.3-1.3-0.9-2.1-3.4-2.3
		c-0.2-0.1-0.5-0.1-1-0.1h-15.7l-6.1,31.6h-15.8L-836.9,187.4z"/>
	<path class="st1" d="M-859,187.4h-19.4c-9.5,0-15.5,2.2-18.2,6.5c-0.4,0.7-0.7,1.5-0.9,2.1l-4.5,23l-1.8,8.6h16.6
		c1.8-9.5,1.8-9.6,2.2-11.5l0.8-3.9h21.2l-2.7,15.4h15.6l6.4-31.6C-842.5,190.3-847.6,187.4-859,187.4z M-882.9,205.9l1.4-7
		c0.4-1.9,2.4-2.8,6.1-2.8h10.1c3.6,0,5.2,0.9,4.8,2.8l-1.2,7H-882.9z"/>
	<path class="st1" d="M-1025.6,187.4l-5.9,29.1c-0.3,1.6-2.3,2.5-5.9,2.5h-10.1c-3.6,0-5.2-0.9-4.8-2.8l5.7-28.8h-16.4l-6.3,31.7
		c-0.1,0.6-0.1,1.3,0,2c0.4,2.4,1.7,4.1,4.1,5.1c2.3,1,6.1,1.5,11.3,1.5h19.3c11.4,0,17.7-2.9,18.9-8.7l6.4-31.6H-1025.6z"/>
</g>
<g>
	<g id="Group-3_00000029005585765306194360000012894743189178921118_">
		<g id="Clip-2_00000024704520003418681720000012959950510036472253_">
		</g>
		<defs>
			
				<filter id="Adobe_OpacityMaskFilter_00000083797157330396223040000001679397070698987926_" filterUnits="userSpaceOnUse" x="-792.4" y="337.3" width="244.6" height="135.4">
				<feColorMatrix  type="matrix" values="1 0 0 0 0  0 1 0 0 0  0 0 1 0 0  0 0 0 1 0"/>
			</filter>
		</defs>
		
			<mask maskUnits="userSpaceOnUse" x="-792.4" y="337.3" width="244.6" height="135.4" id="mask-2_00000075882375226725684600000016833675333365949359_">
			<g style="filter:url(#Adobe_OpacityMaskFilter_00000083797157330396223040000001679397070698987926_);">
				<polygon id="path-1_00000062874078943902136300000016491015308859467190_" class="st1" points="-792.4,337.3 -547.8,337.3 
					-547.8,472.7 -792.4,472.7 				"/>
			</g>
		</mask>
		<path id="Fill-1_00000163073995800385666320000007296135594949920184_" class="st21" d="M-547.8,464.9H-749
			c-0.7,0-1.4-0.5-1.7-1.2l-30.3-82.1c-0.6-1.7,1.4-3.1,2.8-2l20.5,17c0.9,0.8,2.3,0.4,2.7-0.7l18.6-43.8c0.6-1.4,2.6-1.4,3.2,0
			l18.9,41.9c0.5,1,1.8,1.4,2.7,0.7l22.6-17.3c1.4-1.1,3.3,0.3,2.7,2l-4,12.1c-0.4,1.3,0.7,2.6,2,2.3l3.7-0.7
			c0.6-0.1,1.1-0.6,1.3-1.2l9.3-27.6c0.5-1.6-1.3-3-2.7-2l-31.5,22.2c-0.9,0.6-2.1,0.3-2.6-0.7l-22.6-45.6c-0.7-1.3-2.6-1.3-3.2,0.1
			l-21.1,46.5c-0.5,1-1.7,1.4-2.6,0.7l-29.6-21.4c-1.4-1-3.3,0.4-2.7,2.1l38.9,105.3c0.3,0.7,1,1.2,1.7,1.2L-547.8,464.9z"/>
	</g>
	<g>
		<polygon id="Fill-14_00000087406192381632109690000011030757809002242983_" class="st4" points="-623.3,419.1 -621.8,410.6 
			-576.7,410.6 -578.3,419.1 -593.3,419.1 -599.2,450.1 -614.2,450.1 -608.4,419.1 		"/>
		<path id="Fill-22_00000132051185754063153890000009738733890313938571_" class="st4" d="M-741.2,441.9l4.5-22.7
			c0.1-0.5,0.3-1.1,0.6-1.8c2.2-4.5,7.6-6.8,16.2-6.8h32.4l-1.7,8.4h-28.2c-0.2,0.1-0.6,0.1-1.1,0.2c-1.8,0.4-2.9,1.1-3.1,2.3
			l-0.9,4.4h31.9l-1.7,8.5h-31.9l-0.9,4.4c-0.3,1.6,0.9,2.5,3.5,2.6h27.8l-1.7,8.6h-30.1C-737.1,450.1-742.3,447.4-741.2,441.9"/>
		<path id="Fill-12_00000183970081570688620420000011732024074848366258_" class="st1" d="M-571,410.6h36.2c9.9,0,14.4,2.7,13.4,8
			l-1.5,7.9c-0.5,2.6-2.4,4.6-5.6,6c-2.3,1-4.9,1.6-7.8,1.9c-1.1,0.1-2.1,0.1-2.7,0.1l-2.4-0.1l14.6,15.7h-18.3l-13.5-14.7
			c-0.8-0.9-1-1.9-0.6-3.1c1.2-3.4,4.6-5,10.3-5h6.3c2.7,0,4.2-0.7,4.5-2.2l0.7-3.6c0.3-1.3-0.9-2.1-3.4-2.3c-0.2-0.1-0.5-0.1-1-0.1
			h-15.4l-6,31h-15.5L-571,410.6z"/>
		<path id="Fill-12_00000111899464783964517540000002115595645381672609_" class="st1" d="M-455.6,410.6h36.2c9.9,0,14.4,2.7,13.4,8
			l-1.5,7.9c-0.5,2.6-2.4,4.6-5.6,6c-2.3,1-4.9,1.6-7.8,1.9c-1.1,0.1-2.1,0.1-2.7,0.1l-2.4-0.1l14.6,15.7h-18.3l-13.5-14.7
			c-0.8-0.9-1-1.9-0.6-3.1c1.2-3.4,4.6-5,10.3-5h6.3c2.7,0,4.2-0.7,4.5-2.2l0.7-3.6c0.3-1.3-0.9-2.1-3.4-2.3c-0.2-0.1-0.5-0.1-1-0.1
			h-15.4l-6,31h-15.5L-455.6,410.6z"/>
		<path class="st1" d="M-477.4,410.6h-19c-9.3,0-15.2,2.1-17.8,6.4c-0.4,0.7-0.7,1.4-0.8,2.1l-4.4,22.6l-1.7,8.4h16.2
			c1.7-9.3,1.8-9.5,2.2-11.3l0.7-3.8h20.8l-2.7,15.1h15.3l6.2-31C-461.3,413.4-466.3,410.6-477.4,410.6z M-500.9,428.7l1.4-6.9
			c0.4-1.8,2.4-2.7,6-2.7h9.9c3.5,0,5.1,0.9,4.8,2.7l-1.2,6.9H-500.9z"/>
		<path class="st1" d="M-641.8,410.2l-5.7,28.7c0,0-4.9-21.4-9.8-26.7c-0.9-1-2.9-1.5-4.8-1.7c-1.4-0.1-2.7-0.2-4-0.2
			c-4,0-7.4,0.7-10.1,2.1c-2.7,1.4-4.3,3.1-4.7,5.3l-6.3,32.1h14.7l5.4-27.8l6.1,22.3c0,0,0,0.1,0.1,0.1l0.3,1c1,3.5,4,5.3,9.1,5.3
			c0.7,0,8.6-0.5,9.9-0.8c4.8-0.9,7.4-2.8,7.7-5.5l6.3-34.1h-4.4H-641.8z"/>
	</g>
</g>
</svg>
