<svg xmlns="http://www.w3.org/2000/svg" xmlns:xlink="http://www.w3.org/1999/xlink" viewBox="0 0 1073 371.84"><defs><style>.cls-1{fill:#fff;}.cls-1,.cls-3{fill-rule:evenodd;}.cls-2{mask:url(#mask);}.cls-3{fill:#f4ab18;}.cls-4{mask:url(#mask-2-2);}</style><mask id="mask" x="0" y="0" width="671.75" height="371.84" maskUnits="userSpaceOnUse"><g id="mask-2"><polygon id="path-1" class="cls-1" points="0 0 671.75 0 671.75 371.84 0 371.84 0 0"/></g></mask><mask id="mask-2-2" x="940.79" y="261.48" width="132.21" height="68.21" maskUnits="userSpaceOnUse"><g id="mask-4"><polygon id="path-3" class="cls-1" points="940.79 261.48 1073 261.48 1073 329.69 940.79 329.69 940.79 261.48"/></g></mask></defs><g id="Capa_2" data-name="Capa 2"><g id="Capa_1-2" data-name="Capa 1"><g id="Group-3"><g class="cls-2"><path id="Fill-1" class="cls-1" d="M671.75,350.59H119.23a4.85,4.85,0,0,1-4.54-3.17L31.43,122a4.86,4.86,0,0,1,7.62-5.47l56.42,46.78a4.83,4.83,0,0,0,7.54-1.85L154,41a4.83,4.83,0,0,1,8.87-.11l52,115.12a4.82,4.82,0,0,0,7.33,1.86l62.12-47.49a4.85,4.85,0,0,1,7.52,5.44L280.79,149a4.87,4.87,0,0,0,5.53,6.34l10.28-2a4.87,4.87,0,0,0,3.66-3.22l25.54-75.8a4.86,4.86,0,0,0-7.37-5.57L232,129.84a4.82,4.82,0,0,1-7.12-1.82L162.83,2.7a4.83,4.83,0,0,0-8.74.16L96.26,130.63A4.84,4.84,0,0,1,89,132.57L7.69,73.71A4.86,4.86,0,0,0,.32,79.38L107.15,368.66a4.88,4.88,0,0,0,4.73,3.18Z"/></g></g><path id="Fill-4" class="cls-1" d="M139.83,225.08l9.74-50.4h26.11L166.15,224q-.57,3,6,3h46.17l-3,14.45H167c-1.57,0-3-.06-4.34-.18q-13.71-.55-19-4.36t-3.79-11.76"/><polygon id="Fill-6" class="cls-1" points="224.38 241.38 238.41 174.68 266.83 174.68 252.8 241.38 224.38 241.38"/><path id="Fill-8" class="cls-1" d="M301.38,226.93h26.4a27.4,27.4,0,0,0,5.72-.37,6.39,6.39,0,0,0,4-4.45,1.75,1.75,0,0,0,.34-.92l5.54-29.1c-.37-2.09-3.22-3.15-8.53-3.15H308.62Zm-28.49,14.45,12.71-66.7h61.1q25.74,0,22.95,14.63l-7.13,37.44a13.43,13.43,0,0,1-.79,2.41q-5,12.22-26.74,12.22Z"/><path id="Fill-10" class="cls-1" d="M376.22,227.49l7.52-38.36a11.81,11.81,0,0,1,1.1-3q5.67-11.49,27.39-11.48H467l-2.8,14.26H416.44a10.53,10.53,0,0,1-1.78.37c-3.09.62-4.82,1.92-5.21,3.89L408,200.62h53.86L459,215.07H405.16l-1.45,7.41q-.81,4.08,6,4.45h47l-2.84,14.45H402.91q-29.43,0-26.69-13.89"/><path id="Fill-12" class="cls-1" d="M486,174.68h61.26q25.2,0,22.58,13.52l-2.59,13.34q-1.26,6.5-9.42,10.19a38.54,38.54,0,0,1-13.13,3.16c-1.95.12-3.48.18-4.61.18l-4-.18,24.63,26.49h-31l-22.76-24.83a4.67,4.67,0,0,1-1-5.18q3-8.53,17.4-8.53H534q6.94,0,7.66-3.7l1.19-6.12q.65-3.33-5.68-3.89a5.09,5.09,0,0,0-1.65-.19H509.42l-10.18,52.44H473Z"/><polygon id="Fill-14" class="cls-3" points="127.35 279.91 130.03 265.64 206.19 265.64 203.5 279.91 178.07 279.91 168.19 332.35 142.75 332.35 152.62 279.91 127.35 279.91"/><polygon id="Fill-16" class="cls-3" points="200.12 332.35 214.16 265.64 242.57 265.64 228.55 332.35 200.12 332.35"/><path id="Fill-18" class="cls-3" d="M248.88,317.52l7.2-36.69q1.71-8.7,8.58-11.95t23.3-3.24H339.6l-2.8,14.27H288.92c-3.47.25-5.71,1.23-6.74,3l-5.74,29.28c-.48,2.47,0,4.14,1.42,5,.81.5,2.58.74,5.32.74h46.17l-2.83,14.46H270.94a38.12,38.12,0,0,1-9-1.11q-15.08-3.35-13-13.72"/><path id="Fill-20" class="cls-3" d="M379.65,292.14l32.5-26.5H442.7l-40.14,32.8,28,33.91H399.82l-22.47-26.87q-4.05-4.82-3.64-6.86A7.75,7.75,0,0,1,376,295.1Zm-40,40.21,13.2-66.71h26.75l-13.21,66.71Z"/><path id="Fill-22" class="cls-3" d="M436.86,318.45l7.53-38.36a11.82,11.82,0,0,1,1.09-3q5.67-11.49,27.39-11.49H527.6l-2.81,14.27h-47.7a11.84,11.84,0,0,1-1.79.37c-3.08.62-4.82,1.91-5.21,3.89l-1.45,7.41H522.5L519.67,306H465.81l-1.46,7.42q-.8,4.08,6,4.44h47l-2.84,14.46h-51q-29.42,0-26.69-13.9"/><polygon id="Fill-24" class="cls-3" points="533.66 279.91 536.35 265.64 612.5 265.64 609.81 279.91 584.37 279.91 574.5 332.35 549.06 332.35 558.93 279.91 533.66 279.91"/><path id="Fill-26" class="cls-3" d="M622.72,278.8a10.28,10.28,0,0,1,1.33-3.34q6.47-9.82,26.1-9.82h53.31l-2.77,14.27-46.23.18c-3.86.13-6,1.18-6.37,3.15l-.86,4.45c-.1.5-.1.8,0,.93.22,1.73,2.23,2.71,6,3h20.65A38.47,38.47,0,0,1,688.31,294q9,3.33,7.56,10.75l-2.63,13.53q-1.54,8-12.25,11.67a53,53,0,0,1-16.71,2.41H612.5l2.8-14.46H661q6.3-1.11,6.84-3.89l.94-4.81q.54-2.79-5-3.16H642q-13.2,0-19.32-5.92c-2.28-2.23-3.16-4.64-2.66-7.23Z"/><path id="Fill-28" class="cls-3" d="M703.5,323.36c.32-3.14,2.69-5.57,7.14-7.28a26.12,26.12,0,0,1,9.56-1.93c4.26,0,7.67.9,10.26,2.68s3.66,3.89,3.23,6.32-2.31,4.74-5.58,6.52A22.89,22.89,0,0,1,717,332.35a20.25,20.25,0,0,1-8.7-1.93q-5.26-2.35-4.79-7.06"/><path id="Fill-30" class="cls-3" d="M746.15,317.52l7.2-36.69q1.71-8.7,8.59-11.95t23.29-3.24h51.65l-2.8,14.27H786.2c-3.47.25-5.72,1.23-6.74,3l-5.75,29.28q-.72,3.71,1.42,5c.81.5,2.59.74,5.32.74h46.18l-2.84,14.46H768.21a38,38,0,0,1-9-1.11q-15.09-3.35-13.05-13.72"/><path id="Fill-32" class="cls-3" d="M870.85,284.54l-5.62,28.72q-.93,4.64,8,4.63H890q9,0,9.78-4.07l5.9-29.28q.93-4.64-8-4.63H880.92q-9.13,0-10.07,4.63Zm-26.31-4.63a11.72,11.72,0,0,1,1.41-3.52q6.56-10.75,30.11-10.75h32.16q28.29,0,25.42,14.27l-7.65,38q-2.93,14.46-31.39,14.46h-32q-13,0-18.82-2.51a10.48,10.48,0,0,1-6.74-8.43,8.9,8.9,0,0,1,0-3.33Z"/><g id="Group-36"><g class="cls-4"><path id="Fill-34" class="cls-3" d="M940.79,328.22l10.61-54.3q1.07-5.49,8-9t17.14-3.47a65.59,65.59,0,0,1,6.81.36q12.32,1.47,13.68,8.23l7.69,38,24.22-38q4.35-6.75,16.72-8.23,3.6-.36,7.13-.36,10.08,0,15.61,3.47t4.47,9l-10.61,54.3h-24.69l9.21-47.18-26.55,39.69a16.56,16.56,0,0,1-3.47,4q-5.34,4.94-15.58,4.93-12.93,0-15.38-8.95L974.86,281l-9.21,47.18Z"/></g></g></g></g></svg>