<?xml version="1.0" encoding="UTF-8"?>
<svg width="177px" height="62px" viewBox="0 0 177 62" version="1.1" xmlns="http://www.w3.org/2000/svg" xmlns:xlink="http://www.w3.org/1999/xlink">
    <!-- Generator: Sketch 63.1 (92452) - https://sketch.com -->
    <title>Group 37</title>
    <desc>Created with Sketch.</desc>
    <defs>
        <polygon id="path-1" points="0 0.196251969 110.771456 0.196251969 110.771456 61.511811 0 61.511811"></polygon>
        <polygon id="path-3" points="0.136017391 0.313584 21.9363913 0.313584 21.9363913 11.560944 0.136017391 11.560944"></polygon>
    </defs>
    <g id="Welcome" stroke="none" stroke-width="1" fill="none" fill-rule="evenodd">
        <g id="Desktop-HD" transform="translate(-273.000000, -64.000000)">
            <g id="Group-37" transform="translate(273.000000, 64.000000)">
                <g id="Group-3">
                    <mask id="mask-2" fill="white">
                        <use xlink:href="#path-1"></use>
                    </mask>
                    <g id="Clip-2"></g>
                    <path d="M110.771456,58.008811 L19.6608144,58.008811 C19.3273297,58.008811 19.0287445,57.7998661 18.9119279,57.4849843 L5.18282751,20.315252 C4.89829913,19.5448898 5.80908079,18.8912047 6.43921179,19.4135669 L15.7428537,27.1274409 C16.1548624,27.468685 16.7762686,27.3158819 16.9856659,26.8218346 L25.3930677,6.96230709 C25.6654782,6.31838583 26.5670502,6.30813386 26.8549716,6.94424409 L35.4329934,25.9269843 C35.6452991,26.3961339 36.2351987,26.5464961 36.642845,26.2345433 L46.8858668,18.4030157 C47.5121201,17.9241024 48.376369,18.5489843 48.1262555,19.2998189 L46.3017838,24.7709528 C46.1069279,25.3558031 46.6115175,25.9352835 47.2130502,25.8166535 L48.9095568,25.4817559 C49.1902074,25.4261024 49.4204476,25.2235039 49.512059,24.9506063 L53.7242424,12.4510157 C53.9719323,11.7143386 53.1406441,11.0870157 52.509059,11.5337087 L38.2535568,21.6074882 C37.8531812,21.8901496 37.2976965,21.7480866 37.0795742,21.307252 L26.8510939,0.641724409 C26.5515393,0.0363700787 25.6882598,0.051015748 25.409548,0.667110236 L15.8727576,21.7363701 C15.663845,22.1977087 15.0884869,22.3519764 14.6793865,22.0561339 L1.26825983,12.3514252 C0.627465066,11.8876457 -0.221757642,12.5403543 0.0530764192,13.2853307 L17.6691157,60.9877402 C17.7893253,61.3133622 18.1034214,61.5242598 18.4480546,61.5121099 L110.771456,58.008811 Z" id="Fill-1" fill="#F4AB18" mask="url(#mask-2)"></path>
                </g>
                <path d="M23.0571601,37.3110463 L24.663381,29 L28.9691853,29 L27.3984663,37.1281507 C27.3356183,37.454055 27.6647305,37.6170072 28.3872421,37.6170072 L36,37.6170072 L35.5111293,40 L27.5380751,40 C27.2785274,40 27.040089,39.9902715 26.8218003,39.9698417 C25.314409,39.9085522 24.2680626,39.6697179 23.6822813,39.2513929 C23.0960203,38.8345273 22.8873267,38.1875829 23.0571601,37.3110463" id="Fill-4" fill="#F4AB18"></path>
                <polygon id="Fill-6" fill="#F4AB18" points="37 40 39.3140151 29 44 29 41.686507 40"></polygon>
                <path d="M49.6978761,37.6170072 L54.051071,37.6170072 C54.5257759,37.6170072 54.8397241,37.5965773 54.9938613,37.5557177 C55.3044999,37.454055 55.524831,37.20987 55.6539092,36.8221898 C55.6756586,36.8022464 55.6945711,36.7511718 55.710174,36.669939 L56.6236499,31.8718493 C56.5621841,31.526488 56.0926802,31.3528345 55.2170294,31.3528345 L50.8907848,31.3528345 L49.6978761,37.6170072 Z M45,40 L47.0950371,29 L57.171168,29 C60.0000119,29 61.2614786,29.8045459 60.9550954,31.4136376 L59.7792079,37.5863624 C59.7598226,37.6885115 59.7163237,37.820819 59.6491842,37.9837711 C59.1007204,39.328248 57.6307429,40 55.2401972,40 L45,40 Z" id="Fill-8" fill="#F4AB18"></path>
                <path d="M62.0380948,37.7084549 L63.2788737,31.3829928 C63.3066306,31.2409569 63.3670139,31.0775184 63.4595366,30.8941364 C64.0828479,29.6313788 65.5885342,29 67.9761085,29 L77,29 L76.5378731,31.3528345 L68.6705162,31.3528345 C68.6101329,31.3732643 68.5117666,31.3936942 68.3768782,31.4136376 C67.867516,31.5157867 67.5816693,31.7298134 67.5178773,32.0552313 L67.2782921,33.2776156 L76.1604776,33.2776156 L75.6929942,35.6610949 L66.8103217,35.6610949 L66.5707364,36.8834793 C66.4825963,37.3319625 66.8108086,37.5761475 67.5548864,37.6170072 L75.3092682,37.6170072 L74.8417847,40 L66.4387697,40 C63.2048555,40 61.7386132,39.2363138 62.0380948,37.7084549" id="Fill-10" fill="#F4AB18"></path>
                <path d="M80.134923,29 L90.2352142,29 C93.006615,29 94.2477709,29.7432564 93.9591636,31.2302556 L93.5327572,33.4303529 C93.3939944,34.1439374 92.8755613,34.7042982 91.9784215,35.110949 C91.3467618,35.3964801 90.6245209,35.5696471 89.8131441,35.6309366 C89.4927371,35.6513664 89.2393023,35.6610949 89.0538034,35.6610949 L88.390344,35.6309366 L92.4525276,40 L87.3467323,40 L83.593874,35.9052799 C83.3621209,35.6610949 83.3057486,35.3760502 83.4247569,35.0501459 C83.7557639,34.1132927 84.7112034,33.6443796 86.2925208,33.6443796 L88.0501825,33.6443796 C88.8128959,33.6443796 89.2335205,33.4410542 89.31302,33.0334306 L89.508637,32.025073 C89.5799456,31.658309 89.2677294,31.4442823 88.5729519,31.3829928 C88.5209159,31.3630494 88.4298528,31.3528345 88.2997627,31.3528345 L84.0029351,31.3528345 L82.3247729,40 L78,40 L80.134923,29 Z" id="Fill-12" fill="#F4AB18"></path>
                <polygon id="Fill-14" fill="#FEFEFE" points="21 46.3527305 21.442587 44 34 44 33.557413 46.3527305 29.3628847 46.3527305 27.7346132 55 23.5396175 55 25.1674216 46.3527305"></polygon>
                <polygon id="Fill-16" fill="#FEFEFE" points="33 55 35.3140151 44 40 44 37.6870292 55"></polygon>
                <path d="M41.039847,52.5553394 L42.2270757,46.505461 C42.4145585,45.5482202 42.8864308,44.89109 43.6426926,44.5350431 C44.3984674,44.1785098 45.679194,44 47.4838985,44 L56,44 L55.5383541,46.3527305 L47.6431371,46.3527305 C47.0709494,46.3940747 46.7003665,46.5565333 46.5313885,46.8415653 L45.5847221,51.6695998 C45.5048593,52.0772054 45.5818003,52.352023 45.8179799,52.494539 C45.9518962,52.5762547 46.2445642,52.6166261 46.6959838,52.6166261 L47.0626709,52.6166261 L54.3097331,52.6166261 L53.8422435,55 L44.6775002,55 C44.188584,55 43.6928503,54.9387132 43.190786,54.8166261 C41.5331459,54.4503648 40.8163286,53.6969268 41.039847,52.5553394" id="Fill-18" fill="#FEFEFE"></path>
                <path d="M62.6039595,48.3693566 L67.9638728,44 L73,44 L66.3813006,49.4083131 L70.9934104,55 L65.9297688,55 L62.2251445,50.5688702 C61.78,50.0401503 61.5795376,49.6627017 61.6242486,49.43847 C61.656185,49.2755251 61.78,49.0824232 61.9952023,48.8581915 L62.6039595,48.3693566 Z M56,55 L58.1765896,44 L62.586763,44 L60.4096821,55 L56,55 Z" id="Fill-20" fill="#FEFEFE"></path>
                <path d="M72.0380948,52.7080699 L73.2788737,46.3828875 C73.3066306,46.2408578 73.3670139,46.0774265 73.4595366,45.8940526 C74.0828479,44.6318373 75.5885342,44 77.9761085,44 L87,44 L86.5378731,46.3527305 L78.6710032,46.3527305 C78.6101329,46.3731594 78.5122536,46.3940747 78.3768782,46.4140172 C77.868003,46.5161618 77.5816693,46.7296927 77.5178773,47.0555826 L77.2782921,48.2779129 L86.1604776,48.2779129 L85.6929942,50.6608004 L76.8108086,50.6608004 L76.5707364,51.8831307 C76.4830832,52.3315941 76.8108086,52.5762547 77.5548864,52.6166261 L85.3097551,52.6166261 L84.8422717,55 L76.4387697,55 C73.2048555,55 71.7386132,54.2358612 72.0380948,52.7080699" id="Fill-22" fill="#FEFEFE"></path>
                <polygon id="Fill-24" fill="#FEFEFE" points="88 46.3527305 88.4430384 44 101 44 100.556962 46.3527305 96.362584 46.3527305 94.7343711 55 90.5399935 55 92.1677392 46.3527305"></polygon>
                <path d="M102.686157,46.1693566 C102.721817,45.9859828 102.795065,45.8026089 102.904938,45.619235 C103.616699,44.5399071 105.051306,44 107.209721,44 L116,44 L115.543162,46.3527305 L107.919073,46.3828875 C107.282488,46.4038028 106.932631,46.5774486 106.869502,46.9028521 L106.727343,47.6363476 C106.71144,47.7180632 106.710476,47.7686491 106.725415,47.7885916 C106.762521,48.0745965 107.093584,48.2370551 107.718604,48.2779129 L107.997623,48.2779129 L111.123205,48.2779129 C112.052784,48.2779129 112.845986,48.4102145 113.501365,48.6748176 C114.490699,49.0415653 114.906094,49.6325448 114.748032,50.4472695 L114.315289,52.6779129 C114.145179,53.5539244 113.47197,54.1954897 112.295178,54.6026089 C111.499566,54.8676984 110.581071,55 109.53921,55 L101,55 L101.462621,52.6166261 L108.997558,52.6166261 C109.690526,52.494539 110.066887,52.2800354 110.126161,51.9750608 L110.280849,51.180765 C110.340123,50.8748176 110.066405,50.7021446 109.460661,50.6608004 L105.860892,50.6608004 C104.409419,50.6608004 103.346837,50.3353969 102.674109,49.6836171 C102.298712,49.3168693 102.152697,48.9194782 102.235583,48.4914437 L102.686157,46.1693566 Z" id="Fill-26" fill="#FEFEFE"></path>
                <path d="M116.006566,53.5174157 C116.058594,53 116.45057,52.5994382 117.182999,52.3174157 C117.727017,52.105618 118.252346,52 118.759995,52 C119.462117,52 120.02533,52.147191 120.452159,52.4410112 C120.877979,52.7353933 121.055277,53.0825843 120.985065,53.4825843 C120.910307,53.9050562 120.603191,54.2646067 120.064224,54.558427 C119.524752,54.852809 118.914058,55 118.231131,55 C117.723986,55 117.245634,54.8938202 116.795569,54.6820225 C116.216697,54.4230337 115.954033,54.0353933 116.006566,53.5174157" id="Fill-28" fill="#FFFFFF"></path>
                <path d="M123.039847,52.5553394 L124.226589,46.505461 C124.414559,45.5482202 124.885944,44.89109 125.642693,44.5350431 C126.398467,44.1785098 127.678707,44 129.483898,44 L138,44 L137.538354,46.3527305 L129.643137,46.3527305 C129.070949,46.3940747 128.700366,46.5565333 128.531388,46.8415653 L127.584722,51.6695998 C127.504859,52.0772054 127.5818,52.352023 127.81798,52.494539 C127.951896,52.5762547 128.244564,52.6166261 128.695984,52.6166261 L129.062671,52.6166261 L136.309733,52.6166261 L135.842243,55 L126.6775,55 C126.188584,55 125.69285,54.9387132 125.190786,54.8166261 C123.533146,54.4503648 122.816329,53.6969268 123.039847,52.5553394" id="Fill-30" fill="#FEFEFE"></path>
                <path d="M143.601743,47.1163829 L142.675396,51.8524873 C142.572802,52.3617511 143.014206,52.6166261 143.999607,52.6166261 L146.753126,52.6166261 C147.738527,52.6166261 148.276019,52.3928808 148.366602,51.9444174 L149.339491,47.1163829 C149.442085,46.6076056 149.001182,46.3527305 148.01528,46.3527305 L145.262262,46.3527305 C144.257843,46.3527305 143.704337,46.6076056 143.601743,47.1163829 L143.601743,47.1163829 Z M139.263775,46.3527305 C139.300309,46.1693566 139.37838,45.9757683 139.496488,45.7719655 C140.217147,44.5909794 141.872662,44 144.46203,44 L149.764881,44 C152.875225,44 154.272504,44.7840814 153.956214,46.3527305 L152.69406,52.6166261 C152.373266,54.2052178 150.648188,55 147.518326,55 L142.244001,55 C140.814194,55 139.779247,54.862348 139.139662,54.587044 C138.499576,54.3122264 138.128737,53.8491709 138.028646,53.1969047 C137.992112,52.9935883 137.990611,52.8102145 138.023641,52.6467831 L139.263775,46.3527305 Z" id="Fill-32" fill="#FEFEFE"></path>
                <g id="Group-36" transform="translate(155.000000, 43.000000)">
                    <mask id="mask-4" fill="white">
                        <use xlink:href="#path-3"></use>
                    </mask>
                    <g id="Clip-35"></g>
                    <path d="M0.136017391,11.319984 L1.88453913,2.364624 C2.0021913,1.761264 2.4398,1.269264 3.19736522,0.886704 C3.95493043,0.505104 4.89710435,0.313584 6.02388696,0.313584 C6.39262609,0.313584 6.76710435,0.333744 7.14732174,0.374064 C8.50032174,0.535344 9.25262609,0.987984 9.4028,1.731024 L10.6706696,8.003184 L14.6646261,1.731024 C15.1424087,0.987984 16.0611478,0.535344 17.4222783,0.374064 C17.8178,0.333744 18.2094957,0.313584 18.5973652,0.313584 C19.7050174,0.313584 20.5630174,0.505104 21.1713652,0.886704 C21.779713,1.269264 22.0260174,1.761264 21.907887,2.364624 L20.1593652,11.319984 L16.0884087,11.319984 L17.606887,3.540144 L13.2279304,10.083504 C13.0658,10.345104 12.8749739,10.565904 12.6554522,10.746864 C12.0691043,11.289744 11.2130174,11.560944 10.0871913,11.560944 C8.66484348,11.560944 7.81927826,11.068944 7.55049565,10.083504 L5.75366957,3.540144 L4.23471304,11.319984 L0.136017391,11.319984 Z" id="Fill-34" fill="#FEFEFE" mask="url(#mask-4)"></path>
                </g>
            </g>
        </g>
    </g>
</svg>